<mxfile host="Electron" agent="Mozilla/5.0 (Macintosh; Intel Mac OS X 10_15_7) AppleWebKit/537.36 (KHTML, like Gecko) draw.io/27.0.9 Chrome/134.0.6998.205 Electron/35.4.0 Safari/537.36" version="27.0.9">
  <diagram name="Page-1" id="z65koPC6HSACsxeeQq_R">
    <mxGraphModel dx="1584" dy="1013" grid="1" gridSize="10" guides="1" tooltips="1" connect="1" arrows="1" fold="1" page="1" pageScale="1" pageWidth="850" pageHeight="1100" math="0" shadow="0">
      <root>
        <mxCell id="0" />
        <mxCell id="1" parent="0" />
        <mxCell id="9z4fvUjflPHb2SKfe_3s-4" value="" style="rounded=0;whiteSpace=wrap;html=1;" vertex="1" parent="1">
          <mxGeometry x="140" y="310" width="1170" height="880" as="geometry" />
        </mxCell>
        <mxCell id="9z4fvUjflPHb2SKfe_3s-5" value="&lt;font style=&quot;font-size: 35px;&quot;&gt;Data Flow &lt;/font&gt;&lt;font style=&quot;font-size: 20px;&quot;&gt;( Data Lineage )&lt;/font&gt;" style="rounded=0;whiteSpace=wrap;html=1;" vertex="1" parent="1">
          <mxGeometry x="190" y="340" width="690" height="80" as="geometry" />
        </mxCell>
        <mxCell id="9z4fvUjflPHb2SKfe_3s-6" value="" style="rounded=0;whiteSpace=wrap;html=1;dashed=1;" vertex="1" parent="1">
          <mxGeometry x="190" y="480" width="190" height="670" as="geometry" />
        </mxCell>
        <mxCell id="9z4fvUjflPHb2SKfe_3s-7" value="&lt;font style=&quot;font-size: 24px;&quot;&gt;Sources&lt;/font&gt;" style="rounded=0;whiteSpace=wrap;html=1;strokeColor=none;" vertex="1" parent="1">
          <mxGeometry x="225" y="450" width="120" height="60" as="geometry" />
        </mxCell>
        <mxCell id="9z4fvUjflPHb2SKfe_3s-8" value="" style="rounded=0;whiteSpace=wrap;html=1;dashed=1;" vertex="1" parent="1">
          <mxGeometry x="407.5" y="480" width="852.5" height="670" as="geometry" />
        </mxCell>
        <mxCell id="9z4fvUjflPHb2SKfe_3s-9" value="&lt;font style=&quot;font-size: 24px;&quot;&gt;Data Warehouse&lt;/font&gt;" style="rounded=0;whiteSpace=wrap;html=1;strokeColor=none;" vertex="1" parent="1">
          <mxGeometry x="715" y="450" width="230" height="60" as="geometry" />
        </mxCell>
        <mxCell id="9z4fvUjflPHb2SKfe_3s-12" value="" style="image;aspect=fixed;html=1;points=[];align=center;fontSize=12;image=img/lib/azure2/general/Folder_Blank.svg;" vertex="1" parent="1">
          <mxGeometry x="243.77" y="660" width="69" height="56.00000000000001" as="geometry" />
        </mxCell>
        <mxCell id="9z4fvUjflPHb2SKfe_3s-13" value="" style="image;aspect=fixed;html=1;points=[];align=center;fontSize=12;image=img/lib/azure2/general/File.svg;" vertex="1" parent="1">
          <mxGeometry x="293.77" y="690" width="32.46" height="40" as="geometry" />
        </mxCell>
        <mxCell id="9z4fvUjflPHb2SKfe_3s-14" value="&lt;font style=&quot;font-size: 24px;&quot;&gt;CRM&lt;/font&gt;" style="rounded=0;whiteSpace=wrap;html=1;strokeColor=none;" vertex="1" parent="1">
          <mxGeometry x="243.77" y="730" width="80" height="60" as="geometry" />
        </mxCell>
        <mxCell id="9z4fvUjflPHb2SKfe_3s-15" value="" style="image;aspect=fixed;html=1;points=[];align=center;fontSize=12;image=img/lib/azure2/general/Folder_Blank.svg;" vertex="1" parent="1">
          <mxGeometry x="238.76999999999998" y="865" width="69" height="56.00000000000001" as="geometry" />
        </mxCell>
        <mxCell id="9z4fvUjflPHb2SKfe_3s-16" value="" style="image;aspect=fixed;html=1;points=[];align=center;fontSize=12;image=img/lib/azure2/general/File.svg;" vertex="1" parent="1">
          <mxGeometry x="288.77" y="895" width="32.46" height="40" as="geometry" />
        </mxCell>
        <mxCell id="9z4fvUjflPHb2SKfe_3s-17" value="&lt;font style=&quot;font-size: 24px;&quot;&gt;ERP&lt;/font&gt;" style="rounded=0;whiteSpace=wrap;html=1;strokeColor=none;" vertex="1" parent="1">
          <mxGeometry x="238.76999999999998" y="935" width="80" height="60" as="geometry" />
        </mxCell>
        <mxCell id="9z4fvUjflPHb2SKfe_3s-21" value="" style="rounded=0;whiteSpace=wrap;html=1;fillColor=light-dark(#000000,#756249);strokeColor=light-dark(#000000,#756249);strokeWidth=1;fillStyle=hatch;" vertex="1" parent="1">
          <mxGeometry x="450" y="560" width="200" height="560" as="geometry" />
        </mxCell>
        <mxCell id="9z4fvUjflPHb2SKfe_3s-22" value="&lt;font style=&quot;font-size: 20px;&quot;&gt;Bronze Layer&lt;/font&gt;" style="rounded=0;whiteSpace=wrap;html=1;fillColor=#756249;strokeColor=light-dark(#b46504, #756249);" vertex="1" parent="1">
          <mxGeometry x="450" y="520" width="200" height="30" as="geometry" />
        </mxCell>
        <mxCell id="9z4fvUjflPHb2SKfe_3s-31" value="" style="rounded=0;whiteSpace=wrap;html=1;fillColor=light-dark(#000000,#9E9E9E);strokeColor=light-dark(#000000,#9E9E9E);strokeWidth=1;fillStyle=hatch;" vertex="1" parent="1">
          <mxGeometry x="730" y="560" width="200" height="560" as="geometry" />
        </mxCell>
        <mxCell id="9z4fvUjflPHb2SKfe_3s-32" value="&lt;font style=&quot;font-size: 20px;&quot;&gt;Silver Layer&lt;/font&gt;" style="rounded=0;whiteSpace=wrap;html=1;fillColor=light-dark(#000000,#9E9E9E);" vertex="1" parent="1">
          <mxGeometry x="730" y="520" width="200" height="30" as="geometry" />
        </mxCell>
        <mxCell id="9z4fvUjflPHb2SKfe_3s-41" value="" style="rounded=0;whiteSpace=wrap;html=1;fillColor=light-dark(#000000,#EEDD5E);strokeColor=light-dark(#000000,#EEDD5E);strokeWidth=1;fillStyle=hatch;" vertex="1" parent="1">
          <mxGeometry x="1020" y="560" width="200" height="560" as="geometry" />
        </mxCell>
        <mxCell id="9z4fvUjflPHb2SKfe_3s-42" value="&lt;font style=&quot;font-size: 20px;&quot;&gt;Gold Layer&lt;/font&gt;" style="rounded=0;whiteSpace=wrap;html=1;fillColor=light-dark(#e3c800, #eedd5d);strokeColor=#B09500;fontColor=#000000;" vertex="1" parent="1">
          <mxGeometry x="1020" y="520" width="200" height="30" as="geometry" />
        </mxCell>
        <mxCell id="9z4fvUjflPHb2SKfe_3s-55" value="" style="image;aspect=fixed;html=1;points=[];align=center;fontSize=12;image=img/lib/azure2/databases/SQL_Server.svg;" vertex="1" parent="1">
          <mxGeometry x="407.5" y="450" width="30" height="30" as="geometry" />
        </mxCell>
        <mxCell id="9z4fvUjflPHb2SKfe_3s-56" value="Azure SQL Server" style="text;html=1;align=center;verticalAlign=middle;whiteSpace=wrap;rounded=0;" vertex="1" parent="1">
          <mxGeometry x="437.5" y="450" width="142.5" height="30" as="geometry" />
        </mxCell>
        <mxCell id="9z4fvUjflPHb2SKfe_3s-57" value="crm_sales_details" style="rounded=1;whiteSpace=wrap;html=1;fillColor=light-dark(#000000,#756249);" vertex="1" parent="1">
          <mxGeometry x="465" y="636" width="170" height="40" as="geometry" />
        </mxCell>
        <mxCell id="9z4fvUjflPHb2SKfe_3s-58" value="crm_cust_info" style="rounded=1;whiteSpace=wrap;html=1;fillColor=light-dark(#000000,#756249);" vertex="1" parent="1">
          <mxGeometry x="465" y="705" width="170" height="40" as="geometry" />
        </mxCell>
        <mxCell id="9z4fvUjflPHb2SKfe_3s-59" value="crm_prd_info" style="rounded=1;whiteSpace=wrap;html=1;fillColor=light-dark(#000000,#756249);" vertex="1" parent="1">
          <mxGeometry x="465" y="775.2" width="170" height="40" as="geometry" />
        </mxCell>
        <mxCell id="9z4fvUjflPHb2SKfe_3s-60" value="erp_cust_az12" style="rounded=1;whiteSpace=wrap;html=1;fillColor=light-dark(#000000,#756249);" vertex="1" parent="1">
          <mxGeometry x="465" y="842.47" width="170" height="40" as="geometry" />
        </mxCell>
        <mxCell id="9z4fvUjflPHb2SKfe_3s-61" value="erp_loc_a101" style="rounded=1;whiteSpace=wrap;html=1;fillColor=light-dark(#000000,#756249);" vertex="1" parent="1">
          <mxGeometry x="465" y="910" width="170" height="40" as="geometry" />
        </mxCell>
        <mxCell id="9z4fvUjflPHb2SKfe_3s-62" value="erp_px_cat_g1v2" style="rounded=1;whiteSpace=wrap;html=1;fillColor=light-dark(#000000,#756249);" vertex="1" parent="1">
          <mxGeometry x="465" y="980" width="170" height="40" as="geometry" />
        </mxCell>
        <mxCell id="9z4fvUjflPHb2SKfe_3s-67" value="" style="endArrow=classic;html=1;rounded=0;entryX=0;entryY=0.5;entryDx=0;entryDy=0;" edge="1" parent="1" source="9z4fvUjflPHb2SKfe_3s-13" target="9z4fvUjflPHb2SKfe_3s-57">
          <mxGeometry width="50" height="50" relative="1" as="geometry">
            <mxPoint x="560" y="790" as="sourcePoint" />
            <mxPoint x="610" y="740" as="targetPoint" />
          </mxGeometry>
        </mxCell>
        <mxCell id="9z4fvUjflPHb2SKfe_3s-68" value="" style="endArrow=classic;html=1;rounded=0;entryX=0;entryY=0.5;entryDx=0;entryDy=0;" edge="1" parent="1" source="9z4fvUjflPHb2SKfe_3s-13" target="9z4fvUjflPHb2SKfe_3s-58">
          <mxGeometry width="50" height="50" relative="1" as="geometry">
            <mxPoint x="560" y="790" as="sourcePoint" />
            <mxPoint x="610" y="740" as="targetPoint" />
          </mxGeometry>
        </mxCell>
        <mxCell id="9z4fvUjflPHb2SKfe_3s-69" value="" style="endArrow=classic;html=1;rounded=0;entryX=0;entryY=0.5;entryDx=0;entryDy=0;" edge="1" parent="1" source="9z4fvUjflPHb2SKfe_3s-13" target="9z4fvUjflPHb2SKfe_3s-59">
          <mxGeometry width="50" height="50" relative="1" as="geometry">
            <mxPoint x="560" y="790" as="sourcePoint" />
            <mxPoint x="610" y="740" as="targetPoint" />
          </mxGeometry>
        </mxCell>
        <mxCell id="9z4fvUjflPHb2SKfe_3s-72" value="" style="endArrow=classic;html=1;rounded=0;entryX=0;entryY=0.5;entryDx=0;entryDy=0;" edge="1" parent="1">
          <mxGeometry width="50" height="50" relative="1" as="geometry">
            <mxPoint x="318.77" y="908.5" as="sourcePoint" />
            <mxPoint x="457.77" y="860.5" as="targetPoint" />
          </mxGeometry>
        </mxCell>
        <mxCell id="9z4fvUjflPHb2SKfe_3s-73" value="" style="endArrow=classic;html=1;rounded=0;entryX=0;entryY=0.5;entryDx=0;entryDy=0;" edge="1" parent="1">
          <mxGeometry width="50" height="50" relative="1" as="geometry">
            <mxPoint x="318.77" y="916.5" as="sourcePoint" />
            <mxPoint x="457.77" y="929.5" as="targetPoint" />
          </mxGeometry>
        </mxCell>
        <mxCell id="9z4fvUjflPHb2SKfe_3s-74" value="" style="endArrow=classic;html=1;rounded=0;entryX=0;entryY=0.5;entryDx=0;entryDy=0;" edge="1" parent="1">
          <mxGeometry width="50" height="50" relative="1" as="geometry">
            <mxPoint x="318.77" y="923.5" as="sourcePoint" />
            <mxPoint x="457.77" y="999.5" as="targetPoint" />
          </mxGeometry>
        </mxCell>
        <mxCell id="9z4fvUjflPHb2SKfe_3s-75" value="crm_sales_details" style="rounded=1;whiteSpace=wrap;html=1;fillColor=light-dark(#000000,#9E9E9E);" vertex="1" parent="1">
          <mxGeometry x="748.75" y="636" width="170" height="40" as="geometry" />
        </mxCell>
        <mxCell id="9z4fvUjflPHb2SKfe_3s-76" value="crm_cust_info" style="rounded=1;whiteSpace=wrap;html=1;fillColor=light-dark(#000000,#9E9E9E);" vertex="1" parent="1">
          <mxGeometry x="748.75" y="705" width="170" height="40" as="geometry" />
        </mxCell>
        <mxCell id="9z4fvUjflPHb2SKfe_3s-77" value="crm_prd_info" style="rounded=1;whiteSpace=wrap;html=1;fillColor=light-dark(#000000,#9E9E9E);" vertex="1" parent="1">
          <mxGeometry x="748.75" y="775.2" width="170" height="40" as="geometry" />
        </mxCell>
        <mxCell id="9z4fvUjflPHb2SKfe_3s-78" value="erp_cust_az12" style="rounded=1;whiteSpace=wrap;html=1;fillColor=light-dark(#000000,#9E9E9E);" vertex="1" parent="1">
          <mxGeometry x="748.75" y="842.47" width="170" height="40" as="geometry" />
        </mxCell>
        <mxCell id="9z4fvUjflPHb2SKfe_3s-79" value="erp_loc_a101" style="rounded=1;whiteSpace=wrap;html=1;fillColor=light-dark(#000000,#9E9E9E);" vertex="1" parent="1">
          <mxGeometry x="748.75" y="910" width="170" height="40" as="geometry" />
        </mxCell>
        <mxCell id="9z4fvUjflPHb2SKfe_3s-80" value="erp_px_cat_g1v2" style="rounded=1;whiteSpace=wrap;html=1;fillColor=light-dark(#000000,#9E9E9E);" vertex="1" parent="1">
          <mxGeometry x="748.75" y="980" width="170" height="40" as="geometry" />
        </mxCell>
        <mxCell id="9z4fvUjflPHb2SKfe_3s-81" value="" style="endArrow=classic;html=1;rounded=0;exitX=1;exitY=0.5;exitDx=0;exitDy=0;entryX=0;entryY=0.5;entryDx=0;entryDy=0;" edge="1" parent="1" source="9z4fvUjflPHb2SKfe_3s-57" target="9z4fvUjflPHb2SKfe_3s-75">
          <mxGeometry width="50" height="50" relative="1" as="geometry">
            <mxPoint x="820" y="780" as="sourcePoint" />
            <mxPoint x="870" y="730" as="targetPoint" />
          </mxGeometry>
        </mxCell>
        <mxCell id="9z4fvUjflPHb2SKfe_3s-82" value="" style="endArrow=classic;html=1;rounded=0;exitX=1;exitY=0.5;exitDx=0;exitDy=0;entryX=0;entryY=0.5;entryDx=0;entryDy=0;" edge="1" parent="1">
          <mxGeometry width="50" height="50" relative="1" as="geometry">
            <mxPoint x="635" y="724.44" as="sourcePoint" />
            <mxPoint x="749" y="724.44" as="targetPoint" />
          </mxGeometry>
        </mxCell>
        <mxCell id="9z4fvUjflPHb2SKfe_3s-83" value="" style="endArrow=classic;html=1;rounded=0;exitX=1;exitY=0.5;exitDx=0;exitDy=0;entryX=0;entryY=0.5;entryDx=0;entryDy=0;" edge="1" parent="1">
          <mxGeometry width="50" height="50" relative="1" as="geometry">
            <mxPoint x="634.75" y="794.64" as="sourcePoint" />
            <mxPoint x="748.75" y="794.64" as="targetPoint" />
          </mxGeometry>
        </mxCell>
        <mxCell id="9z4fvUjflPHb2SKfe_3s-84" value="" style="endArrow=classic;html=1;rounded=0;exitX=1;exitY=0.5;exitDx=0;exitDy=0;entryX=0;entryY=0.5;entryDx=0;entryDy=0;" edge="1" parent="1">
          <mxGeometry width="50" height="50" relative="1" as="geometry">
            <mxPoint x="635" y="861.91" as="sourcePoint" />
            <mxPoint x="749" y="861.91" as="targetPoint" />
          </mxGeometry>
        </mxCell>
        <mxCell id="9z4fvUjflPHb2SKfe_3s-85" value="" style="endArrow=classic;html=1;rounded=0;exitX=1;exitY=0.5;exitDx=0;exitDy=0;entryX=0;entryY=0.5;entryDx=0;entryDy=0;" edge="1" parent="1">
          <mxGeometry width="50" height="50" relative="1" as="geometry">
            <mxPoint x="634.75" y="929.44" as="sourcePoint" />
            <mxPoint x="748.75" y="929.44" as="targetPoint" />
          </mxGeometry>
        </mxCell>
        <mxCell id="9z4fvUjflPHb2SKfe_3s-86" value="" style="endArrow=classic;html=1;rounded=0;exitX=1;exitY=0.5;exitDx=0;exitDy=0;entryX=0;entryY=0.5;entryDx=0;entryDy=0;" edge="1" parent="1">
          <mxGeometry width="50" height="50" relative="1" as="geometry">
            <mxPoint x="635" y="999.44" as="sourcePoint" />
            <mxPoint x="749" y="999.44" as="targetPoint" />
          </mxGeometry>
        </mxCell>
        <mxCell id="9z4fvUjflPHb2SKfe_3s-88" value="&lt;font style=&quot;color: rgb(0, 0, 0);&quot;&gt;fact_sales&lt;/font&gt;" style="rounded=1;whiteSpace=wrap;html=1;fillColor=light-dark(#000000, #eedd5e);" vertex="1" parent="1">
          <mxGeometry x="1035" y="703.27" width="170" height="40" as="geometry" />
        </mxCell>
        <mxCell id="9z4fvUjflPHb2SKfe_3s-89" value="&lt;font style=&quot;color: rgb(0, 0, 0);&quot;&gt;dim_customers&lt;/font&gt;" style="rounded=1;whiteSpace=wrap;html=1;fillColor=light-dark(#000000, #eedd5e);" vertex="1" parent="1">
          <mxGeometry x="1035" y="772.27" width="170" height="40" as="geometry" />
        </mxCell>
        <mxCell id="9z4fvUjflPHb2SKfe_3s-90" value="&lt;font style=&quot;color: rgb(0, 0, 0);&quot;&gt;dim_products&lt;/font&gt;" style="rounded=1;whiteSpace=wrap;html=1;fillColor=light-dark(#000000, #eedd5e);" vertex="1" parent="1">
          <mxGeometry x="1035" y="842.47" width="170" height="40" as="geometry" />
        </mxCell>
        <mxCell id="9z4fvUjflPHb2SKfe_3s-91" value="" style="endArrow=classic;html=1;rounded=0;exitX=1;exitY=0.5;exitDx=0;exitDy=0;entryX=0;entryY=0.5;entryDx=0;entryDy=0;" edge="1" parent="1" source="9z4fvUjflPHb2SKfe_3s-75" target="9z4fvUjflPHb2SKfe_3s-88">
          <mxGeometry width="50" height="50" relative="1" as="geometry">
            <mxPoint x="820" y="780" as="sourcePoint" />
            <mxPoint x="870" y="730" as="targetPoint" />
          </mxGeometry>
        </mxCell>
        <mxCell id="9z4fvUjflPHb2SKfe_3s-92" value="" style="endArrow=classic;html=1;rounded=0;exitX=1;exitY=0.5;exitDx=0;exitDy=0;entryX=0;entryY=0.5;entryDx=0;entryDy=0;" edge="1" parent="1" source="9z4fvUjflPHb2SKfe_3s-76" target="9z4fvUjflPHb2SKfe_3s-89">
          <mxGeometry width="50" height="50" relative="1" as="geometry">
            <mxPoint x="820" y="780" as="sourcePoint" />
            <mxPoint x="870" y="730" as="targetPoint" />
          </mxGeometry>
        </mxCell>
        <mxCell id="9z4fvUjflPHb2SKfe_3s-93" value="" style="endArrow=classic;html=1;rounded=0;exitX=1;exitY=0.5;exitDx=0;exitDy=0;entryX=0;entryY=0.5;entryDx=0;entryDy=0;" edge="1" parent="1" source="9z4fvUjflPHb2SKfe_3s-77" target="9z4fvUjflPHb2SKfe_3s-90">
          <mxGeometry width="50" height="50" relative="1" as="geometry">
            <mxPoint x="820" y="780" as="sourcePoint" />
            <mxPoint x="870" y="730" as="targetPoint" />
          </mxGeometry>
        </mxCell>
        <mxCell id="9z4fvUjflPHb2SKfe_3s-94" value="" style="endArrow=classic;html=1;rounded=0;exitX=1;exitY=0.5;exitDx=0;exitDy=0;entryX=0;entryY=0.5;entryDx=0;entryDy=0;" edge="1" parent="1" source="9z4fvUjflPHb2SKfe_3s-78" target="9z4fvUjflPHb2SKfe_3s-89">
          <mxGeometry width="50" height="50" relative="1" as="geometry">
            <mxPoint x="820" y="780" as="sourcePoint" />
            <mxPoint x="870" y="730" as="targetPoint" />
          </mxGeometry>
        </mxCell>
        <mxCell id="9z4fvUjflPHb2SKfe_3s-95" value="" style="endArrow=classic;html=1;rounded=0;exitX=1;exitY=0.5;exitDx=0;exitDy=0;entryX=0;entryY=0.5;entryDx=0;entryDy=0;" edge="1" parent="1" source="9z4fvUjflPHb2SKfe_3s-79" target="9z4fvUjflPHb2SKfe_3s-89">
          <mxGeometry width="50" height="50" relative="1" as="geometry">
            <mxPoint x="820" y="780" as="sourcePoint" />
            <mxPoint x="870" y="730" as="targetPoint" />
          </mxGeometry>
        </mxCell>
        <mxCell id="9z4fvUjflPHb2SKfe_3s-96" value="" style="endArrow=classic;html=1;rounded=0;exitX=1;exitY=0.5;exitDx=0;exitDy=0;entryX=0;entryY=0.5;entryDx=0;entryDy=0;" edge="1" parent="1" source="9z4fvUjflPHb2SKfe_3s-80" target="9z4fvUjflPHb2SKfe_3s-90">
          <mxGeometry width="50" height="50" relative="1" as="geometry">
            <mxPoint x="820" y="780" as="sourcePoint" />
            <mxPoint x="870" y="730" as="targetPoint" />
          </mxGeometry>
        </mxCell>
      </root>
    </mxGraphModel>
  </diagram>
</mxfile>
